# xmcd
#
# Track frame offsets:
#	150
#	16083
#	29835
#	49097
#	63507
#	75680
#	91454
#	107463
#	125378
#	142493
#	159997
#	178957
#	193061
#	206876
#	224135
#	246221
#	257544
#	277236
#
# Disc length: 3901 seconds
#
# Revision: 1
# Processed by: cddbd v1.5.1PL2 Copyright (c) Steve Scherf et al.
# Submitted via: audiograbber 1.83.01
#
DISCID=1c0f3b12
DTITLE=трио Шарм. - (2005) - Мечтай и сбудется...
DYEAR=2005
DGENRE=Pop
TTITLE0=Рождественская.
TTITLE1=Город.
TTITLE2=Молитва.
TTITLE3=Кыш-кыш.
TTITLE4=Новый русский хит.
TTITLE5=Зимний сад.
TTITLE6=Зеркала.
TTITLE7=Ёжики.
TTITLE8=Mon Mec A Moia.
TTITLE9=Мышка.
TTITLE10=Зимние цветы.
TTITLE11=Снилось мне...
TTITLE12=Только брось.
TTITLE13=Тюменская нефть.
TTITLE14=И снова туда...
TTITLE15=Ах, мамочка.
TTITLE16=Под испанским небом.
TTITLE17=Сады цветут.
EXTD=
EXTT0=
EXTT1=
EXTT2=
EXTT3=
EXTT4=
EXTT5=
EXTT6=
EXTT7=
EXTT8=
EXTT9=
EXTT10=
EXTT11=
EXTT12=
EXTT13=
EXTT14=
EXTT15=
EXTT16=
EXTT17=
PLAYORDER=
